<svg width="920" height="441" viewBox="0 0 920 441" fill="none" xmlns="http://www.w3.org/2000/svg">
<path d="M16.4193 68.903C22.0966 68.903 26.6989 64.3007 26.6989 58.6234C26.6989 52.9461 22.0966 48.3438 16.4193 48.3438C10.742 48.3438 6.13965 52.9461 6.13965 58.6234C6.13965 64.3007 10.742 68.903 16.4193 68.903Z" fill="white" stroke="black" stroke-miterlimit="10"/>
<path d="M11.2796 129.939C16.9569 129.939 21.5593 125.337 21.5593 119.66C21.5593 113.982 16.9569 109.38 11.2796 109.38C5.60235 109.38 1 113.982 1 119.66C1 125.337 5.60235 129.939 11.2796 129.939Z" fill="#FFC000" stroke="black" stroke-miterlimit="10"/>
<path d="M198.883 265.63C204.56 265.63 209.163 261.027 209.163 255.35C209.163 249.673 204.56 245.07 198.883 245.07C193.206 245.07 188.604 249.673 188.604 255.35C188.604 261.027 193.206 265.63 198.883 265.63Z" fill="#FFC000" stroke="black" stroke-miterlimit="10"/>
<path d="M80.5384 211.662C86.2157 211.662 90.8181 207.059 90.8181 201.382C90.8181 195.705 86.2157 191.103 80.5384 191.103C74.8611 191.103 70.2588 195.705 70.2588 201.382C70.2588 207.059 74.8611 211.662 80.5384 211.662Z" fill="#90F000" stroke="black" stroke-miterlimit="10"/>
<path d="M381.218 327.822C385.334 327.822 388.671 324.485 388.671 320.369C388.671 316.253 385.334 312.916 381.218 312.916C377.102 312.916 373.766 316.253 373.766 320.369C373.766 324.485 377.102 327.822 381.218 327.822Z" fill="#00FFFF" stroke="black" stroke-miterlimit="10"/>
<path d="M452.79 246.484C456.906 246.484 460.242 243.147 460.242 239.031C460.242 234.915 456.906 231.578 452.79 231.578C448.674 231.578 445.337 234.915 445.337 239.031C445.337 243.147 448.674 246.484 452.79 246.484Z" fill="#0000FF" stroke="black" stroke-miterlimit="10"/>
<path d="M83.367 169.258C77.3277 169.258 72.3164 174.141 72.3164 180.18C72.3164 186.219 77.1992 191.231 83.367 191.231C89.4063 191.231 94.4176 186.348 94.4176 180.18C94.4176 174.141 89.4063 169.258 83.367 169.258ZM88.8923 188.018C88.5068 188.275 88.1214 188.532 87.7359 188.789C86.4509 189.432 84.909 189.817 83.367 189.817C78.8697 189.817 75.0148 186.605 73.9869 182.364C73.8584 181.85 73.7299 181.465 73.7299 180.951C73.7299 180.694 73.7299 180.437 73.7299 180.18C73.7299 174.912 77.9702 170.671 83.367 170.671C84.395 170.671 85.4229 170.8 86.4509 171.185C86.9649 171.314 87.3504 171.571 87.7359 171.699C90.8198 173.241 92.8757 176.454 92.8757 180.18C93.0042 183.521 91.3337 186.348 88.8923 188.018Z" fill="black"/>
<path d="M87.7353 188.79C86.4504 189.432 84.9084 189.818 83.3665 189.818C78.8692 189.818 75.0143 186.605 73.9863 182.365L82.981 181.08L87.7353 188.79Z" fill="#FFFF00"/>
<path d="M93.0033 180.308C93.0033 183.52 91.4614 186.347 89.02 188.146L84.2656 180.308L87.8635 171.827C90.8189 173.369 93.0033 176.581 93.0033 180.308Z" fill="#FFC000"/>
<path d="M86.4519 171.185L82.8541 179.537L73.8594 180.951C73.8594 180.694 73.8594 180.437 73.8594 180.18C73.8594 174.911 78.0997 170.671 83.4965 170.671C84.396 170.671 85.424 170.928 86.4519 171.185Z" fill="#90F000"/>
<path d="M89.0205 188.275L87.864 189.046L87.7355 188.789L82.9812 181.08L82.5957 180.309L82.8527 179.666L86.4506 171.185L86.7076 170.543L87.9925 171.057L87.7355 171.699L84.1376 180.18L88.892 188.018L89.0205 188.275Z" fill="black"/>
<path d="M83.495 180.951L82.9811 181.079L74.1149 182.364L73.3439 182.492L73.0869 181.079L73.8579 180.951L82.8526 179.666L83.238 179.537L83.495 180.951Z" fill="black"/>
<path d="M647.589 187.119C641.549 187.119 636.538 192.002 636.538 198.041C636.538 204.081 641.421 209.092 647.589 209.092C653.628 209.092 658.639 204.209 658.639 198.041C658.639 192.13 653.757 187.119 647.589 187.119ZM653.114 206.008C652.729 206.265 652.343 206.522 651.958 206.779C650.673 207.421 649.131 207.807 647.589 207.807C643.091 207.807 639.236 204.595 638.209 200.354C638.08 199.84 637.952 199.455 637.952 198.941C637.952 198.684 637.952 198.427 637.952 198.17C637.952 192.901 642.192 188.661 647.589 188.661C648.617 188.661 649.645 188.79 650.673 189.175C651.187 189.304 651.572 189.561 651.958 189.689C655.041 191.231 657.097 194.443 657.097 198.17C657.226 201.382 655.555 204.209 653.114 206.008Z" fill="black"/>
<path d="M651.957 206.651C650.672 207.294 649.13 207.679 647.588 207.679C643.091 207.679 639.236 204.467 638.208 200.226L647.203 198.941L651.957 206.651Z" fill="#FFFF00"/>
<path d="M657.225 198.169C657.225 201.382 655.683 204.208 653.242 206.007L648.487 198.169L652.085 189.688C655.041 191.23 657.225 194.443 657.225 198.169Z" fill="#FFC000"/>
<path d="M650.674 189.176L647.076 197.528L638.081 198.942C638.081 198.685 638.081 198.428 638.081 198.171C638.081 192.902 642.321 188.662 647.718 188.662C648.746 188.662 649.774 188.791 650.674 189.176Z" fill="#90F000"/>
<path d="M653.371 206.265L652.086 206.908L651.957 206.651L647.331 198.941L646.817 198.17L647.074 197.527L650.672 189.175L650.929 188.404L652.343 188.918L651.957 189.689L648.488 198.17L653.114 206.008L653.371 206.265Z" fill="black"/>
<path d="M647.717 198.812L647.331 198.941L638.337 200.226L637.566 200.354L637.309 198.941L638.08 198.812L647.074 197.527H647.588L647.717 198.812Z" fill="black"/>
<path d="M691.792 67.1035C685.753 67.1035 680.741 71.9863 680.741 78.0256C680.741 84.0649 685.624 89.0763 691.792 89.0763C697.831 89.0763 702.842 84.1934 702.842 78.0256C702.714 72.1148 697.831 67.1035 691.792 67.1035ZM697.317 85.9924C696.932 86.2494 696.546 86.5063 696.161 86.7633C694.876 87.4058 693.334 87.7913 691.792 87.7913C687.294 87.7913 683.44 84.5789 682.412 80.3385C682.283 79.8246 682.155 79.4391 682.155 78.9251C682.155 78.6681 682.155 78.4111 682.155 78.1541C682.155 72.8858 686.395 68.6455 691.792 68.6455C692.82 68.6455 693.848 68.774 694.876 69.1595C695.39 69.2879 695.775 69.5449 696.161 69.6734C699.245 71.2154 701.3 74.4278 701.3 78.1541C701.3 81.3665 699.758 84.1934 697.317 85.9924Z" fill="black"/>
<path d="M696.033 86.6355C694.748 87.278 693.206 87.6635 691.664 87.6635C687.167 87.6635 683.312 84.4511 682.284 80.2107L691.279 78.9258L696.033 86.6355Z" fill="#FFFF00"/>
<path d="M701.301 78.1536C701.301 81.3659 699.759 84.1929 697.318 85.9918L692.563 78.1536L696.161 69.6729C699.245 71.2148 701.301 74.4272 701.301 78.1536Z" fill="#FFC000"/>
<path d="M694.747 69.1605L691.149 77.5127L682.154 78.9261C682.154 78.6691 682.154 78.4121 682.154 78.1551C682.154 72.8868 686.395 68.6465 691.791 68.6465C692.819 68.6465 693.847 68.775 694.747 69.1605Z" fill="#0000FF"/>
<path d="M697.446 86.2495L696.161 87.0205L696.032 86.635L691.407 78.9253L690.893 78.1543L691.278 77.5119L694.747 69.1597L695.133 68.3887L696.418 68.9026L696.161 69.6736L692.563 78.1543L697.317 85.9926L697.446 86.2495Z" fill="black"/>
<path d="M691.791 78.9252H691.406L682.411 80.3386H681.64L681.512 78.9252H682.154L691.277 77.5117H691.663L691.791 78.9252Z" fill="black"/>
<path d="M728.284 137.776C722.245 137.776 717.233 142.659 717.233 148.698C717.233 154.738 722.116 159.749 728.284 159.749C734.323 159.749 739.335 154.866 739.335 148.698C739.206 142.659 734.323 137.776 728.284 137.776ZM733.809 156.537C733.424 156.794 733.038 157.051 732.653 157.308C731.368 157.95 729.826 158.336 728.284 158.336C723.787 158.336 719.932 155.123 718.904 150.883C718.775 150.369 718.647 149.983 718.647 149.469C718.647 149.212 718.647 148.955 718.647 148.698C718.647 143.43 722.887 139.19 728.284 139.19C729.312 139.19 730.34 139.318 731.368 139.704C731.882 139.832 732.267 140.089 732.653 140.218C735.737 141.76 737.793 144.972 737.793 148.698C737.793 152.039 736.251 154.866 733.809 156.537Z" fill="black"/>
<path d="M732.525 157.308C731.24 157.951 729.698 158.336 728.157 158.336C723.659 158.336 719.804 155.124 718.776 150.884L727.771 149.599L732.525 157.308Z" fill="#FFC000"/>
<path d="M737.793 148.699C737.793 151.912 736.251 154.739 733.81 156.538L729.056 148.699L732.654 140.219C735.737 141.889 737.793 145.102 737.793 148.699Z" fill="#90F000"/>
<path d="M731.369 139.703L727.771 148.056L718.776 149.469C718.776 149.212 718.776 148.955 718.776 148.698C718.776 143.43 723.017 139.189 728.414 139.189C729.313 139.189 730.341 139.318 731.369 139.703Z" fill="black"/>
<path d="M733.937 156.794L732.781 157.565L732.524 157.308L727.898 149.598L727.513 148.827L727.77 148.056L731.368 139.704L731.625 139.062L732.91 139.575L732.653 140.218L729.055 148.699L733.809 156.537L733.937 156.794Z" fill="black"/>
<path d="M728.412 149.469L727.898 149.598L718.903 150.883L718.132 151.011L718.004 149.598L718.646 149.469L727.77 148.056H728.155L728.412 149.469Z" fill="black"/>
<path d="M742.29 65.1768C736.251 65.1768 731.239 70.0596 731.239 76.0989C731.239 82.1382 736.122 87.1495 742.29 87.1495C748.329 87.1495 753.34 82.2667 753.34 76.0989C753.34 70.1881 748.329 65.1768 742.29 65.1768ZM747.815 83.9371C747.43 84.1941 747.044 84.4511 746.659 84.7081C745.374 85.3506 743.832 85.736 742.29 85.736C737.792 85.736 733.938 82.5237 732.91 78.2833C732.781 77.7693 732.653 77.3838 732.653 76.8699C732.653 76.6129 732.653 76.3559 732.653 76.0989C732.653 70.8306 736.893 66.5902 742.29 66.5902C743.318 66.5902 744.346 66.7187 745.374 67.1042C745.888 67.2327 746.273 67.4897 746.659 67.6182C749.743 69.1601 751.799 72.3725 751.799 76.0989C751.927 79.4398 750.257 82.2667 747.815 83.9371Z" fill="black"/>
<path d="M746.658 84.7088C745.373 85.3512 743.831 85.7367 742.289 85.7367C737.792 85.7367 733.937 82.5243 732.909 78.284L741.904 76.999L746.658 84.7088Z" fill="#FFFF00"/>
<path d="M751.926 76.2268C751.926 79.4392 750.384 82.2661 747.943 84.065L743.188 76.2268L746.786 67.7461C749.742 69.288 751.926 72.5004 751.926 76.2268Z" fill="#90F000"/>
<path d="M745.375 67.1038L741.777 75.456L732.782 76.8695C732.782 76.6125 732.782 76.3555 732.782 76.0985C732.782 70.8302 737.023 66.5898 742.419 66.5898C743.447 66.5898 744.475 66.8468 745.375 67.1038Z" fill="#FFE8D0"/>
<path d="M747.943 84.3228L746.787 84.9653L746.658 84.7083L741.904 76.9986L741.519 76.2276L741.776 75.5851L745.373 67.1044L745.63 66.4619L747.044 66.9759L746.658 67.7469L743.061 76.0991L747.815 83.9373L747.943 84.3228Z" fill="black"/>
<path d="M742.418 76.8695L741.904 76.998L733.038 78.283L732.267 78.4114L732.01 76.998L732.781 76.8695L741.775 75.5846L742.161 75.4561L742.418 76.8695Z" fill="black"/>
<path d="M847.914 13.5215C841.875 13.5215 836.863 18.4043 836.863 24.4436C836.863 30.4829 841.746 35.4942 847.914 35.4942C853.953 35.4942 858.965 30.6114 858.965 24.4436C858.965 18.4043 853.953 13.5215 847.914 13.5215ZM853.439 32.2818C853.054 32.5388 852.668 32.7958 852.283 33.0528C850.998 33.6953 849.456 34.0807 847.914 34.0807C843.417 34.0807 839.562 30.8684 838.534 26.628C838.405 26.114 838.277 25.7285 838.277 25.2146C838.277 24.9576 838.277 24.7006 838.277 24.4436C838.277 19.1753 842.517 14.9349 847.914 14.9349C848.942 14.9349 849.97 15.0634 850.998 15.4489C851.512 15.5774 851.897 15.8344 852.283 15.9629C855.367 17.5048 857.423 20.7172 857.423 24.4436C857.551 27.656 855.881 30.6114 853.439 32.2818Z" fill="black"/>
<path d="M852.282 33.0535C850.997 33.696 849.455 34.0814 847.913 34.0814C843.416 34.0814 839.561 30.8691 838.533 26.6287L847.528 25.3438L852.282 33.0535Z" fill="#FFFF00"/>
<path d="M857.55 24.4446C857.55 27.657 856.008 30.4839 853.567 32.2828L848.812 24.4446L852.41 15.9639C855.366 17.5058 857.55 20.8467 857.55 24.4446Z" fill="#FFC000"/>
<path d="M850.999 15.4486L847.401 23.8008L838.406 25.2142C838.406 24.9572 838.406 24.7002 838.406 24.4432C838.406 19.1749 842.647 14.9346 848.043 14.9346C848.943 14.9346 849.971 15.0631 850.999 15.4486Z" fill="#00FFFF"/>
<path d="M853.567 32.5386L852.411 33.3096L852.282 33.0526L847.528 25.2144L847.143 24.5719L847.4 23.8009L850.997 15.4487L851.254 14.6777L852.539 15.3202L852.282 15.9627L848.685 24.4434L853.439 32.2816L853.567 32.5386Z" fill="black"/>
<path d="M848.042 25.2142H847.528L838.662 26.6277L837.891 26.7562L837.634 25.3427L838.405 25.2142L847.399 23.8008H847.785L848.042 25.2142Z" fill="black"/>
<path d="M61.1366 177.096C55.0973 177.096 50.0859 181.979 50.0859 188.018C50.0859 194.057 54.9688 199.068 61.1366 199.068C67.1758 199.068 72.1872 194.186 72.1872 188.018C72.1872 181.979 67.1758 177.096 61.1366 177.096ZM61.9075 197.655C61.6505 197.655 61.3935 197.655 61.1366 197.655C60.8796 197.655 60.6226 197.655 60.3656 197.655C55.4827 197.269 51.4994 193.158 51.4994 188.146C51.4994 183.135 55.3543 179.023 60.3656 178.638C60.6226 178.638 60.8796 178.638 61.1366 178.638C61.3935 178.638 61.6505 178.638 61.9075 178.638C66.9189 179.023 70.7737 183.135 70.7737 188.146C70.7737 193.158 66.7904 197.269 61.9075 197.655Z" fill="black"/>
<path d="M60.4931 178.51V197.527C55.6103 197.142 51.627 193.03 51.627 188.018C51.627 183.007 55.4818 178.895 60.4931 178.51Z" fill="#FFC000"/>
<path d="M70.7724 188.018C70.7724 193.03 66.9176 197.27 61.9062 197.527V178.51C66.7891 178.895 70.7724 183.007 70.7724 188.018Z" fill="#FFFF00"/>
<path d="M61.9066 177.737H60.4932V198.297H61.9066V177.737Z" fill="black"/>
<path d="M86.1942 129.81C80.1549 129.81 75.1436 134.692 75.1436 140.732C75.1436 146.771 80.0264 151.782 86.1942 151.782C92.2335 151.782 97.2448 146.899 97.2448 140.732C97.2448 134.692 92.2335 129.81 86.1942 129.81ZM86.9652 150.369C86.7082 150.369 86.4512 150.369 86.1942 150.369C85.9372 150.369 85.6802 150.369 85.4232 150.369C80.5404 149.983 76.557 145.872 76.557 140.86C76.557 135.849 80.4119 131.737 85.4232 131.352C85.6802 131.352 85.9372 131.352 86.1942 131.352C86.4512 131.352 86.7082 131.352 86.9652 131.352C91.9765 131.737 95.8313 135.849 95.8313 140.86C95.8313 145.872 91.848 149.983 86.9652 150.369Z" fill="black"/>
<path d="M85.5527 131.223V150.24C80.6699 149.855 76.6865 145.743 76.6865 140.731C76.6865 135.72 80.5414 131.608 85.5527 131.223Z" fill="#FFC000"/>
<path d="M95.832 140.861C95.832 145.873 91.9771 150.113 86.9658 150.37V131.353C91.8486 131.61 95.832 135.721 95.832 140.861Z" fill="#FFFF00"/>
<path d="M86.9652 130.58H85.5518V151.139H86.9652V130.58Z" fill="black"/>
<path d="M405.119 277.58C399.08 277.58 394.068 282.463 394.068 288.502C394.068 294.541 398.951 299.553 405.119 299.553C411.158 299.553 416.17 294.67 416.17 288.502C416.17 282.463 411.287 277.58 405.119 277.58ZM405.89 298.139C405.633 298.139 405.376 298.139 405.119 298.139C404.862 298.139 404.605 298.139 404.348 298.139C399.465 297.754 395.482 293.642 395.482 288.631C395.482 283.619 399.337 279.508 404.348 279.122C404.605 279.122 404.862 279.122 405.119 279.122C405.376 279.122 405.633 279.122 405.89 279.122C410.901 279.508 414.756 283.619 414.756 288.631C414.756 293.642 410.901 297.754 405.89 298.139Z" fill="black"/>
<path d="M404.478 278.993V298.011C399.595 297.625 395.611 293.513 395.611 288.502C395.611 283.49 399.466 279.379 404.478 278.993Z" fill="#FFC000"/>
<path d="M414.757 288.502C414.757 293.513 410.902 297.754 405.891 298.011V278.993C410.902 279.379 414.757 283.49 414.757 288.502Z" fill="#FFFF00"/>
<path d="M405.89 278.351H404.477V298.91H405.89V278.351Z" fill="black"/>
<path d="M556.999 243.399C550.96 243.399 545.948 248.282 545.948 254.322C545.948 260.361 550.831 265.372 556.999 265.372C563.038 265.372 568.049 260.489 568.049 254.322C568.049 248.411 563.167 243.399 556.999 243.399ZM557.77 263.959C557.513 263.959 557.256 263.959 556.999 263.959C556.742 263.959 556.485 263.959 556.228 263.959C551.345 263.573 547.362 259.461 547.362 254.45C547.362 249.439 551.217 245.327 556.228 244.941C556.485 244.941 556.742 244.941 556.999 244.941C557.256 244.941 557.513 244.941 557.77 244.941C562.781 245.327 566.636 249.439 566.636 254.45C566.636 259.461 562.781 263.573 557.77 263.959Z" fill="black"/>
<path d="M556.357 244.942V263.96C551.475 263.574 547.491 259.462 547.491 254.451C547.491 249.44 551.346 245.199 556.357 244.942Z" fill="#FFC000"/>
<path d="M566.637 254.451C566.637 259.462 562.782 263.703 557.771 263.96V244.942C562.782 245.199 566.637 249.44 566.637 254.451Z" fill="#FFFF00"/>
<path d="M557.77 244.17H556.356V264.729H557.77V244.17Z" fill="black"/>
<path d="M772.229 49.6279C766.19 49.6279 761.179 54.5108 761.179 60.55C761.179 66.5893 766.062 71.6007 772.229 71.6007C778.269 71.6007 783.28 66.7178 783.28 60.55C783.28 54.5108 778.397 49.6279 772.229 49.6279ZM773 70.1872C772.743 70.1872 772.486 70.1872 772.229 70.1872C771.972 70.1872 771.715 70.1872 771.458 70.1872C766.576 69.8017 762.592 65.6899 762.592 60.6786C762.592 55.6672 766.447 51.5554 771.458 51.1699C771.715 51.1699 771.972 51.1699 772.229 51.1699C772.486 51.1699 772.743 51.1699 773 51.1699C778.012 51.5554 781.867 55.6672 781.867 60.6786C781.867 65.6899 777.883 69.8017 773 70.1872Z" fill="black"/>
<path d="M771.588 51.041V70.0583C766.705 69.6728 762.722 65.561 762.722 60.5497C762.722 55.5384 766.577 51.4265 771.588 51.041Z" fill="#90F000"/>
<path d="M781.867 60.5497C781.867 65.561 778.012 69.8013 773.001 70.0583V51.041C777.884 51.4265 781.867 55.5384 781.867 60.5497Z" fill="#FFFF00"/>
<path d="M773 50.2705H771.587V70.8298H773V50.2705Z" fill="black"/>
<path d="M599.144 289.273C593.105 289.273 588.094 294.156 588.094 300.196C588.094 306.235 592.977 311.246 599.144 311.246C605.184 311.246 610.195 306.363 610.195 300.196C610.195 294.285 605.312 289.273 599.144 289.273ZM599.915 309.833C599.658 309.833 599.401 309.833 599.144 309.833C598.887 309.833 598.63 309.833 598.373 309.833C593.491 309.447 589.507 305.335 589.507 300.324C589.507 295.313 593.362 291.201 598.373 290.815C598.63 290.815 598.887 290.815 599.144 290.815C599.401 290.815 599.658 290.815 599.915 290.815C604.927 291.201 608.782 295.313 608.782 300.324C608.782 305.335 604.927 309.576 599.915 309.833Z" fill="black"/>
<path d="M598.503 290.816V309.834C593.62 309.448 589.637 305.336 589.637 300.325C589.637 295.314 593.492 291.202 598.503 290.816Z" fill="#FFC000"/>
<path d="M608.782 300.325C608.782 305.336 604.927 309.577 599.916 309.834V290.816C604.927 291.202 608.782 295.314 608.782 300.325Z" fill="#FFFF00"/>
<path d="M599.915 290.044H598.502V310.603H599.915V290.044Z" fill="black"/>
<path d="M884.278 34.7217C878.239 34.7217 873.228 39.6045 873.228 45.6438C873.228 51.6831 878.11 56.6944 884.278 56.6944C890.317 56.6944 895.329 51.8116 895.329 45.6438C895.2 39.733 890.317 34.7217 884.278 34.7217ZM884.921 55.281C884.664 55.281 884.407 55.281 884.15 55.281C883.893 55.281 883.636 55.281 883.379 55.281C878.496 54.8955 874.512 50.7836 874.512 45.7723C874.512 40.761 878.367 36.6491 883.379 36.2636C883.636 36.2636 883.893 36.2636 884.15 36.2636C884.407 36.2636 884.664 36.2636 884.921 36.2636C889.932 36.6491 893.787 40.761 893.787 45.7723C893.787 50.7836 889.932 54.8955 884.921 55.281Z" fill="black"/>
<path d="M883.507 36.2646V55.282C878.624 54.8965 874.641 50.7846 874.641 45.7733C874.641 40.762 878.624 36.5216 883.507 36.2646Z" fill="#FFC000"/>
<path d="M893.786 45.7733C893.786 50.7846 889.931 55.025 884.92 55.282V36.2646C889.931 36.5216 893.786 40.762 893.786 45.7733Z" fill="#FFFF00"/>
<path d="M884.92 35.4922H883.507V56.0515H884.92V35.4922Z" fill="black"/>
<path d="M689.349 418.796C683.31 418.796 678.299 423.679 678.299 429.718C678.299 435.757 683.182 440.769 689.349 440.769C695.389 440.769 700.4 435.886 700.4 429.718C700.4 423.679 695.517 418.796 689.349 418.796ZM690.12 439.355C689.863 439.355 689.606 439.355 689.349 439.355C689.092 439.355 688.835 439.355 688.578 439.355C683.696 438.97 679.712 434.858 679.712 429.846C679.712 424.835 683.567 420.723 688.578 420.338C688.835 420.338 689.092 420.338 689.349 420.338C689.606 420.338 689.863 420.338 690.12 420.338C695.132 420.723 698.987 424.835 698.987 429.846C698.987 434.858 695.132 438.97 690.12 439.355Z" fill="black"/>
<path d="M688.708 420.209V439.226C683.825 438.841 679.842 434.729 679.842 429.718C679.842 424.706 683.697 420.594 688.708 420.209Z" fill="#FFC000"/>
<path d="M698.987 429.847C698.987 434.859 695.132 439.099 690.121 439.356V420.339C695.132 420.596 698.987 424.708 698.987 429.847Z" fill="#FFFF00"/>
<path d="M690.12 419.566H688.707V440.126H690.12V419.566Z" fill="black"/>
<path d="M726.743 361.486C720.704 361.486 715.692 366.369 715.692 372.408C715.692 378.448 720.575 383.459 726.743 383.459C732.782 383.459 737.794 378.576 737.794 372.408C737.665 366.369 732.782 361.486 726.743 361.486ZM727.385 381.917C727.128 381.917 726.871 381.917 726.614 381.917C726.358 381.917 726.1 381.917 725.843 381.917C720.961 381.532 716.977 377.42 716.977 372.408C716.977 367.397 720.832 363.285 725.843 362.9C726.1 362.9 726.358 362.9 726.614 362.9C726.871 362.9 727.128 362.9 727.385 362.9C732.397 363.285 736.252 367.397 736.252 372.408C736.252 377.42 732.397 381.66 727.385 381.917Z" fill="black"/>
<path d="M725.972 362.899V381.917C721.089 381.531 717.105 377.419 717.105 372.408C717.105 367.397 720.96 363.285 725.972 362.899Z" fill="#FFC000"/>
<path d="M736.251 372.408C736.251 377.419 732.396 381.66 727.385 381.917V362.899C732.396 363.285 736.251 367.397 736.251 372.408Z" fill="#FFFF00"/>
<path d="M727.385 362.129H725.972V382.688H727.385V362.129Z" fill="black"/>
<path d="M428.119 285.417C422.08 285.417 417.068 290.3 417.068 296.339C417.068 302.378 421.951 307.39 428.119 307.39C434.158 307.39 439.17 302.507 439.17 296.339C439.041 290.3 434.158 285.417 428.119 285.417ZM428.761 305.848C428.504 305.848 428.247 305.848 427.99 305.848C427.733 305.848 427.476 305.848 427.219 305.848C422.337 305.462 418.353 301.35 418.353 296.339C418.353 291.328 422.208 287.216 427.219 286.83C427.476 286.83 427.733 286.83 427.99 286.83C428.247 286.83 428.504 286.83 428.761 286.83C433.773 287.216 437.628 291.328 437.628 296.339C437.628 301.35 433.773 305.591 428.761 305.848Z" fill="black"/>
<path d="M427.348 286.83V305.847C422.465 305.462 418.481 301.35 418.481 296.339C418.481 291.327 422.465 287.216 427.348 286.83Z" fill="#90F000"/>
<path d="M437.627 296.339C437.627 301.35 433.772 305.59 428.761 305.847V286.83C433.772 287.216 437.627 291.327 437.627 296.339Z" fill="#FFFF00"/>
<path d="M428.761 286.06H427.348V306.619H428.761V286.06Z" fill="black"/>
<path d="M181.665 227.466C175.626 227.466 170.614 232.349 170.614 238.388C170.614 244.427 175.497 249.439 181.665 249.439C187.704 249.439 192.715 244.556 192.715 238.388C192.715 232.477 187.704 227.466 181.665 227.466ZM182.436 248.025C182.179 248.025 181.922 248.025 181.665 248.025C181.408 248.025 181.151 248.025 180.894 248.025C176.011 247.64 172.028 243.528 172.028 238.516C172.028 233.505 175.883 229.393 180.894 229.008C181.151 229.008 181.408 229.008 181.665 229.008C181.922 229.008 182.179 229.008 182.436 229.008C187.447 229.393 191.302 233.505 191.302 238.516C191.302 243.528 187.319 247.64 182.436 248.025Z" fill="black"/>
<path d="M181.022 229.009V248.026C176.14 247.641 172.156 243.529 172.156 238.517C172.156 233.506 176.011 229.266 181.022 229.009Z" fill="#FFC000"/>
<path d="M191.302 238.517C191.302 243.529 187.447 247.769 182.436 248.026V229.009C187.318 229.266 191.302 233.506 191.302 238.517Z" fill="#FFFF00"/>
<path d="M182.435 228.237H181.021V248.797H182.435V228.237Z" fill="black"/>
<path d="M161.748 245.713C155.709 245.713 150.697 250.596 150.697 256.635C150.697 262.674 155.58 267.686 161.748 267.686C167.787 267.686 172.798 262.803 172.798 256.635C172.67 250.596 167.787 245.713 161.748 245.713ZM162.39 266.272C162.133 266.272 161.876 266.272 161.619 266.272C161.362 266.272 161.105 266.272 160.848 266.272C155.966 265.887 151.982 261.775 151.982 256.764C151.982 251.752 155.837 247.64 160.848 247.255C161.105 247.255 161.362 247.255 161.619 247.255C161.876 247.255 162.133 247.255 162.39 247.255C167.402 247.64 171.257 251.752 171.257 256.764C171.257 261.775 167.402 265.887 162.39 266.272Z" fill="black"/>
<path d="M160.976 247.126V266.143C156.093 265.758 152.109 261.646 152.109 256.635C152.109 251.623 156.093 247.511 160.976 247.126Z" fill="#FFC000"/>
<path d="M171.256 256.635C171.256 261.646 167.401 265.886 162.39 266.143V247.126C167.401 247.511 171.256 251.623 171.256 256.635Z" fill="#FFFF00"/>
<path d="M162.39 246.354H160.977V266.914H162.39V246.354Z" fill="black"/>
<path d="M684.725 411.085L688.836 396.18L691.792 411.085H684.725Z" fill="black"/>
<path d="M721.987 405.175L726.099 390.27L729.055 405.175H721.987Z" fill="black"/>
<path d="M871.172 86.7638L875.284 71.8584L878.239 86.7638H871.172Z" fill="black"/>
<path d="M912.933 36.008L917.044 21.1025L920 36.008H912.933Z" fill="black"/>
<path d="M736.122 336.816H720.445V352.493H736.122V336.816Z" fill="black"/>
<path d="M602.101 218.086C594.135 218.086 587.71 224.511 587.71 232.477C587.71 240.444 594.135 246.869 602.101 246.869C610.068 246.869 616.493 240.444 616.493 232.477C616.493 224.511 609.94 218.086 602.101 218.086ZM603.001 244.813C602.615 244.813 602.358 244.813 602.101 244.813C601.844 244.813 601.459 244.813 601.202 244.813C596.448 244.427 592.464 241.472 590.665 237.36C590.408 236.846 590.151 236.204 590.023 235.561C589.766 234.533 589.637 233.505 589.637 232.349C589.637 228.751 591.179 225.539 593.492 223.354C594.006 222.84 594.392 222.455 594.906 222.198C596.962 220.784 599.403 219.885 602.101 219.885C604.928 219.885 607.498 220.784 609.554 222.455C610.068 222.84 610.582 223.226 610.968 223.74C613.152 225.924 614.566 229.008 614.566 232.477C614.566 233.891 614.309 235.304 613.795 236.718C613.538 237.36 613.281 237.874 613.024 238.517C611.096 241.986 607.37 244.556 603.001 244.813Z" fill="black"/>
<path d="M613.024 238.388C611.096 241.986 607.37 244.556 603.001 244.942V234.02L613.024 238.388Z" fill="#FF00FF"/>
<path d="M601.074 233.763V244.813C596.319 244.428 592.336 241.472 590.537 237.361L601.074 233.763Z" fill="#F9DC62"/>
<path d="M600.431 231.964L590.023 235.562C589.766 234.534 589.638 233.506 589.638 232.349C589.638 228.751 591.18 225.539 593.493 223.354L600.431 231.964Z" fill="#F73E3E"/>
<path d="M609.554 222.455L602.101 230.935L594.905 222.198C596.961 220.784 599.403 219.885 602.101 219.885C604.928 219.885 607.498 220.913 609.554 222.455Z" fill="#0000FF"/>
<path d="M614.566 232.477C614.566 233.891 614.309 235.304 613.795 236.718L603.644 232.22L610.968 223.868C613.152 225.924 614.566 229.008 614.566 232.477Z" fill="#90F000"/>
<path d="M614.18 236.846L613.409 238.516L613.024 238.388L603.001 233.891L601.973 233.505L601.074 233.762L590.537 237.36L589.638 237.745L588.995 235.947L590.023 235.561L600.431 231.963L601.588 231.578L602.102 231.449L602.616 231.578L603.644 232.092L613.795 236.589L614.18 236.846Z" fill="black"/>
<path d="M611.61 222.969L610.967 223.74L603.643 232.092L603.001 232.734V245.327H601.073V232.092L601.587 231.578L602.101 230.935L609.554 222.455L610.196 221.684L611.61 222.969Z" fill="black"/>
<path d="M602.744 231.835L601.33 232.991L601.073 232.734L600.431 231.963L593.492 223.354L592.85 222.583L594.263 221.427L594.906 222.198L602.101 230.935L602.615 231.578L602.744 231.835Z" fill="black"/>
<path d="M867.572 52.585C861.662 52.585 856.907 57.3393 856.907 63.2501C856.907 69.1609 861.662 73.9152 867.572 73.9152C873.483 73.9152 878.238 69.1609 878.238 63.2501C878.238 57.3393 873.483 52.585 867.572 52.585ZM868.343 72.3733C868.086 72.3733 867.829 72.3733 867.701 72.3733C867.572 72.3733 867.187 72.3733 867.058 72.3733C863.589 72.1163 860.634 69.9318 859.22 66.8479C859.092 66.4624 858.835 65.9485 858.706 65.563C858.449 64.792 858.449 64.021 858.449 63.2501C858.449 60.6802 859.606 58.2387 861.276 56.5683C861.662 56.1828 861.919 55.9258 862.304 55.6688C863.846 54.6409 865.645 53.9984 867.572 53.9984C869.628 53.9984 871.556 54.6409 873.098 55.9258C873.483 56.1828 873.869 56.5683 874.126 56.8253C875.796 58.4957 876.824 60.8087 876.824 63.2501C876.824 64.278 876.696 65.4345 876.31 66.334C876.182 66.7194 875.925 67.2334 875.668 67.6189C874.254 70.3173 871.427 72.2448 868.343 72.3733Z" fill="black"/>
<path d="M875.668 67.6182C874.254 70.3166 871.427 72.2441 868.215 72.3726V64.2773L875.668 67.6182Z" fill="#00FFFF"/>
<path d="M866.93 64.1494V72.3731C863.461 72.1161 860.505 69.9317 859.092 66.8478L866.93 64.1494Z" fill="#F9DC62"/>
<path d="M866.417 62.8637L858.707 65.5621C858.45 64.7911 858.45 64.0201 858.45 63.2492C858.45 60.6793 859.607 58.2378 861.277 56.5674L866.417 62.8637Z" fill="#0000FF"/>
<path d="M873.097 55.797L867.572 62.0933L862.304 55.6685C863.846 54.6405 865.645 53.998 867.572 53.998C869.628 53.998 871.555 54.6406 873.097 55.797Z" fill="#D0D0FF"/>
<path d="M876.825 63.25C876.825 64.2779 876.696 65.4344 876.311 66.3339L868.729 62.993L874.126 56.8252C875.797 58.4956 876.825 60.6801 876.825 63.25Z" fill="#FFC000"/>
<path d="M876.567 66.4629L876.053 67.7478L875.668 67.6193L868.344 64.2784L867.573 64.0215L866.93 64.15L859.092 66.8483L858.45 67.1053L857.936 65.8204L858.578 65.5634L866.416 62.865L867.187 62.608L867.573 62.4795L867.958 62.608H868.087L868.729 62.9935L876.31 66.3344L876.567 66.4629Z" fill="black"/>
<path d="M874.639 56.1817L874.125 56.8242L868.729 62.992L868.343 63.506V72.7576H866.93V62.992L867.187 62.6065L867.572 62.0925L873.098 55.7962L873.611 55.2822L874.639 56.1817Z" fill="black"/>
<path d="M868.087 62.7371L867.059 63.6365L866.93 63.5081L866.417 62.8656L861.148 56.5693L860.763 55.9268L861.791 55.0273L862.305 55.6698L867.573 62.0946L867.958 62.6086H868.087V62.7371Z" fill="black"/>
<path d="M730.725 25.3426L729.44 24.7001C725.843 22.7727 721.859 21.6162 717.49 21.6162C703.484 21.6162 692.177 32.9238 692.177 46.9298C692.177 60.9358 703.484 72.2434 717.49 72.2434C731.496 72.2434 742.804 60.9358 742.804 46.9298C742.804 37.8066 738.05 29.8399 730.725 25.3426ZM729.954 67.3606C729.569 67.6176 729.184 67.7461 728.927 68.0031C728.927 68.0031 728.798 68.0031 728.798 68.1315C725.457 69.9305 721.602 70.9585 717.619 70.9585C714.021 70.9585 710.552 70.1875 707.468 68.6456C707.082 68.3886 706.568 68.2601 706.183 68.0031C698.987 64.0197 693.976 56.4385 693.719 47.7008C693.719 47.4438 693.719 47.1868 693.719 46.9298C693.719 46.6728 693.719 46.4158 693.719 46.1589C693.976 37.8066 698.473 30.6109 705.026 26.499C705.412 26.242 705.797 25.9851 706.311 25.7281C709.652 23.9291 713.507 22.9012 717.619 22.9012C721.731 22.9012 725.586 23.9291 728.927 25.7281C729.312 25.9851 729.826 26.242 730.211 26.499C736.893 30.6109 741.391 37.8066 741.519 46.1589C741.519 46.4158 741.519 46.6728 741.519 46.9298C741.519 47.1868 741.519 47.4438 741.519 47.7008C741.134 55.9245 736.636 63.2488 729.954 67.3606Z" fill="black"/>
<path d="M741.391 47.5723C741.134 55.9245 736.637 63.1202 729.955 67.2321L718.647 47.5723H741.391Z" fill="#00FFFF"/>
<path d="M728.798 68.0037C725.457 69.8026 721.602 70.8306 717.619 70.8306C714.021 70.8306 710.552 70.0596 707.468 68.5177L718.004 48.9863L728.798 68.0037Z" fill="#800000"/>
<path d="M717.105 47.5723L706.183 67.8746C698.987 63.8912 693.976 56.31 693.719 47.5723H717.105Z" fill="#FFFF00"/>
<path d="M716.206 46.1598H693.591C693.848 37.8076 698.345 30.6119 704.898 26.5L716.206 46.1598Z" fill="#FF0000"/>
<path d="M728.799 25.8572L717.877 46.1595L706.184 25.8572C709.524 24.0582 713.379 23.0303 717.491 23.0303C721.603 23.0303 725.458 24.0582 728.799 25.8572Z" fill="#0000FF"/>
<path d="M741.391 46.1598H719.418L729.955 26.5C736.636 30.6119 741.134 37.9361 741.391 46.1598Z" fill="#90F000"/>
<path d="M729.955 67.3606L728.927 68.003H728.798L717.876 49.1142L717.105 47.7007V47.5722L716.206 46.1588L705.027 26.499L704.513 25.5995L705.669 24.957L706.183 25.8565L717.876 46.1588L718.776 47.5722L729.955 67.3606Z" fill="black"/>
<path d="M730.725 25.3432L730.083 26.4997L719.418 46.1595L718.775 47.573H718.647L717.876 49.1149L707.467 68.6462L706.697 69.8027L705.54 69.1602L706.183 68.0038L717.105 47.7015V47.573L717.876 46.1595L728.798 25.8572L729.44 24.5723L730.725 25.3432Z" fill="black"/>
<path d="M742.162 46.1592H692.948V47.5726H742.162V46.1592Z" fill="black"/>
<path d="M717.618 56.6947C723.154 56.6947 727.641 52.2074 727.641 46.6721C727.641 41.1367 723.154 36.6494 717.618 36.6494C712.083 36.6494 707.596 41.1367 707.596 46.6721C707.596 52.2074 712.083 56.6947 717.618 56.6947Z" fill="#FFE8D0" stroke="black" stroke-miterlimit="10"/>
<path d="M735.864 73.4001C739.767 73.4001 742.931 70.236 742.931 66.3329C742.931 62.4297 739.767 59.2656 735.864 59.2656C731.961 59.2656 728.797 62.4297 728.797 66.3329C728.797 70.236 731.961 73.4001 735.864 73.4001Z" fill="#90F000" stroke="black" stroke-miterlimit="10"/>
<path d="M884.792 78.154C888.695 78.154 891.859 74.9899 891.859 71.0868C891.859 67.1836 888.695 64.0195 884.792 64.0195C880.889 64.0195 877.725 67.1836 877.725 71.0868C877.725 74.9899 880.889 78.154 884.792 78.154Z" fill="#90F000" stroke="black" stroke-miterlimit="10"/>
<path d="M820.839 116.687C823.388 116.515 825.318 114.366 825.15 111.887C824.982 109.409 822.779 107.541 820.23 107.713C817.681 107.886 815.751 110.035 815.92 112.513C816.088 114.991 818.29 116.86 820.839 116.687Z" fill="white" stroke="#FFC000" stroke-miterlimit="10"/>
<path d="M859.221 51.4275C863.124 51.4275 866.288 48.2634 866.288 44.3602C866.288 40.4571 863.124 37.293 859.221 37.293C855.317 37.293 852.153 40.4571 852.153 44.3602C852.153 48.2634 855.317 51.4275 859.221 51.4275Z" fill="#FF00FF" stroke="black" stroke-miterlimit="10"/>
<path d="M734.194 12.1084C728.155 12.1084 723.144 16.9912 723.144 23.0305C723.144 29.0698 728.026 34.0811 734.194 34.0811C740.233 34.0811 745.245 29.1983 745.245 23.0305C745.116 16.9912 740.233 12.1084 734.194 12.1084ZM743.703 23.8015C743.317 28.5558 739.591 32.2822 734.837 32.6677C734.58 32.6677 734.323 32.6677 734.066 32.6677C733.809 32.6677 733.552 32.6677 733.295 32.6677C728.54 32.2822 724.814 28.5558 724.429 23.8015C724.429 23.5445 724.429 23.2875 724.429 23.0305C724.429 22.7735 724.429 22.5165 724.429 22.2596C724.814 17.5052 728.54 13.7788 733.295 13.3934C733.552 13.3934 733.809 13.3934 734.066 13.3934C734.323 13.3934 734.58 13.3934 734.837 13.3934C739.591 13.7788 743.317 17.5052 743.703 22.2596C743.703 22.5165 743.703 22.7735 743.703 23.0305C743.703 23.2875 743.703 23.5445 743.703 23.8015Z" fill="black"/>
<path d="M733.423 23.8008V32.667C728.669 32.2815 724.942 28.5551 724.557 23.8008H733.423Z" fill="#FFFF00"/>
<path d="M743.702 23.8008C743.317 28.5551 739.59 32.2815 734.836 32.667V23.8008H743.702Z" fill="#90F000"/>
<path d="M743.702 22.3877H734.836V13.5215C739.59 13.907 743.317 17.6333 743.702 22.3877Z" fill="#0000FF"/>
<path d="M733.423 13.5215V22.3877H724.557C724.942 17.6333 728.797 13.907 733.423 13.5215Z" fill="#FF0000"/>
<path d="M734.836 12.751H733.423V33.3103H734.836V12.751Z" fill="black"/>
<path d="M743.702 22.3877H724.557V23.8012H743.702V22.3877Z" fill="black"/>
<path d="M822.599 70.7021C816.56 70.7021 811.549 75.4565 811.549 81.3673C811.549 87.2781 816.432 92.0324 822.599 92.0324C828.639 92.0324 833.65 87.2781 833.65 81.3673C833.65 75.585 828.767 70.7021 822.599 70.7021ZM832.237 82.1383C831.851 86.7641 828.125 90.362 823.37 90.7475C823.113 90.7475 822.856 90.7475 822.599 90.7475C822.342 90.7475 822.085 90.7475 821.828 90.7475C817.074 90.362 813.348 86.7641 812.962 82.1383C812.962 81.8813 812.962 81.6243 812.962 81.4958C812.962 81.2388 812.962 80.9818 812.962 80.8533C813.348 76.356 817.074 72.6296 821.828 72.3726C822.085 72.3726 822.342 72.3726 822.599 72.3726C822.856 72.3726 823.113 72.3726 823.37 72.3726C828.125 72.7581 831.851 76.356 832.237 80.8533C832.237 81.1103 832.237 81.3673 832.237 81.4958C832.237 81.6243 832.237 81.8813 832.237 82.1383Z" fill="black"/>
<path d="M821.958 82.1396V90.7488C817.204 90.3633 813.477 86.7655 813.092 82.1396H821.958Z" fill="#FFFF00"/>
<path d="M832.237 82.1396C831.852 86.7655 828.125 90.3633 823.371 90.7488V82.1396H832.237Z" fill="#FFC000"/>
<path d="M832.237 80.7258H823.371V72.2451C828.125 72.5021 831.852 76.1 832.237 80.7258Z" fill="#00FFFF"/>
<path d="M821.958 72.1152V80.5959H813.092C813.477 76.0986 817.204 72.5007 821.958 72.1152Z" fill="#0000FF"/>
<path d="M823.371 71.4727H821.957V91.3895H823.371V71.4727Z" fill="black"/>
<path d="M832.238 80.7246H813.092V82.1381H832.238V80.7246Z" fill="black"/>
<path d="M899.697 19.4336C893.658 19.4336 888.646 24.3164 888.646 30.3557C888.646 36.395 893.529 41.4063 899.697 41.4063C905.736 41.4063 910.748 36.5235 910.748 30.3557C910.619 24.4449 905.736 19.4336 899.697 19.4336ZM909.206 31.2552C908.82 36.0095 905.094 39.7359 900.34 40.1214C900.083 40.1214 899.826 40.1214 899.569 40.1214C899.312 40.1214 899.055 40.1214 898.798 40.1214C894.043 39.7359 890.317 36.0095 889.931 31.2552C889.931 30.9982 889.931 30.7412 889.931 30.4842C889.931 30.2272 889.931 29.9702 889.931 29.7132C890.317 24.9589 894.043 21.2325 898.798 20.8471C899.055 20.8471 899.312 20.8471 899.569 20.8471C899.826 20.8471 900.083 20.8471 900.34 20.8471C905.094 21.2325 908.82 24.9589 909.206 29.7132C909.206 29.9702 909.206 30.2272 909.206 30.4842C909.206 30.7412 909.206 30.9982 909.206 31.2552Z" fill="black"/>
<path d="M898.926 31.2559V40.122C894.171 39.7366 890.445 36.0102 890.06 31.2559H898.926Z" fill="#FFFF00"/>
<path d="M909.205 31.2559C908.82 36.0102 905.093 39.7366 900.339 40.122V31.2559H909.205Z" fill="#FFC000"/>
<path d="M909.205 29.7129H900.339V20.8467C905.093 21.2322 908.82 25.087 909.205 29.7129Z" fill="#0000FF"/>
<path d="M898.926 20.9756V29.8418H890.06C890.445 25.0874 894.3 21.2326 898.926 20.9756Z" fill="#FF0000"/>
<path d="M900.339 20.2041H898.926V40.7634H900.339V20.2041Z" fill="black"/>
<path d="M909.205 29.7129H890.06V31.1263H909.205V29.7129Z" fill="black"/>
<path d="M743.874 92.0181C745.32 92.0181 746.465 91.1059 746.783 89.686H745.776C745.501 90.5379 744.795 91.0629 743.874 91.0629C742.669 91.0629 741.783 90.1593 741.783 88.9028C741.783 87.6464 742.669 86.7342 743.874 86.7342C744.761 86.7342 745.466 87.2247 745.759 88.025H746.757C746.439 86.6653 745.294 85.7789 743.874 85.7789C742.093 85.7789 740.776 87.0956 740.776 88.9028C740.776 90.7014 742.093 92.0181 743.874 92.0181ZM749.781 92.0267C751.064 92.0267 751.89 91.2006 751.89 89.9441V87.2591H750.935V89.815C750.935 90.6154 750.504 91.1145 749.781 91.1145C749.058 91.1145 748.62 90.624 748.62 89.815V87.2591H747.664V89.9441C747.664 91.2006 748.499 92.0267 749.781 92.0267Z" fill="#AF0505"/>
<path d="M805.488 89.5981C806.837 89.5981 807.726 88.9033 807.726 87.8304C807.726 86.4713 806.591 86.2874 805.662 86.1341C804.997 86.0217 804.435 85.9298 804.435 85.4393C804.435 85.0408 804.824 84.7649 805.447 84.7649C806.111 84.7649 806.52 85.051 806.54 85.5721H807.613C807.593 84.5094 806.755 83.8044 805.478 83.8044C804.19 83.8044 803.342 84.489 803.342 85.4802C803.342 86.7574 804.425 86.9618 805.345 87.1253C806.019 87.2377 806.612 87.3501 806.612 87.8815C806.612 88.3413 806.142 88.5967 805.529 88.5967C804.865 88.5967 804.374 88.2902 804.343 87.7077H803.24C803.271 88.8522 804.149 89.5981 805.488 89.5981Z" fill="#AF0505"/>
<path d="M769.661 65.6904H761.309V74.2996H769.661V65.6904Z" fill="white" stroke="black" stroke-miterlimit="10"/>
<path d="M765.444 110.118L755.871 101.937L747.69 111.509L757.263 119.691L765.444 110.118Z" fill="#00FFFF" stroke="black" stroke-miterlimit="10"/>
<path d="M477.484 157C473.414 157 470 160.283 470 164.485C470 168.557 473.282 171.971 477.484 171.971C481.685 171.971 484.967 168.688 484.967 164.485C484.967 160.283 481.685 157 477.484 157Z" fill="#406E9B" stroke="#1C273D" stroke-miterlimit="10"/>
<path d="M481.386 166.679H473.524V167.166H481.386V166.679Z" fill="#1C273D"/>
<path d="M482.082 167.514H472.829V168.001H482.082V167.514Z" fill="#1C273D"/>
<path d="M481.386 162.018H473.524V162.505H481.386V162.018Z" fill="#1C273D"/>
<path d="M475.264 162.782H474.221V166.4H475.264V162.782Z" fill="#1C273D"/>
<path d="M477.072 162.782H476.028V166.4H477.072V162.782Z" fill="#1C273D"/>
<path d="M478.881 162.782H477.838V166.4H478.881V162.782Z" fill="#1C273D"/>
<path d="M480.76 162.782H479.717V166.4H480.76V162.782Z" fill="#1C273D"/>
<path d="M473.524 161.739L477.49 160L481.386 161.739H473.524Z" fill="#1C273D"/>
<path d="M363.484 261C359.414 261 356 264.283 356 268.485C356 272.557 359.282 275.971 363.484 275.971C367.685 275.971 370.967 272.688 370.967 268.485C370.967 264.283 367.685 261 363.484 261Z" fill="#406E9B" stroke="#1C273D" stroke-miterlimit="10"/>
<path d="M360 272.658V271.138H360.743C361.046 269.095 361.348 267.06 361.65 265.021H364.808C365.109 267.055 365.412 269.092 365.714 271.135H366.46V272.658H360ZM364.723 271.132C364.699 271.111 364.689 271.101 364.678 271.093C364.212 270.743 363.745 270.395 363.28 270.043C363.236 270.01 363.211 270.018 363.172 270.047C362.711 270.395 362.248 270.74 361.787 271.086C361.773 271.097 361.761 271.11 361.737 271.132H364.723ZM363.652 269.689C364.153 270.065 364.645 270.433 365.155 270.815L364.853 268.788C364.448 269.092 364.053 269.386 363.652 269.689ZM362.051 268.07H364.408L363.229 266.934L362.05 268.07H362.051ZM362.806 269.689L361.604 268.788L361.303 270.817C361.814 270.433 362.305 270.064 362.805 269.689H362.806ZM362.048 265.794L361.776 267.628L362.863 266.58L362.048 265.794ZM364.409 265.794L363.594 266.581L364.66 267.61L364.676 267.602L364.408 265.794H364.409ZM362.182 268.585C362.53 268.846 362.861 269.096 363.194 269.341C363.212 269.354 363.262 269.343 363.286 269.327C363.598 269.096 363.908 268.863 364.219 268.63C364.233 268.619 364.245 268.606 364.269 268.585H362.182ZM363.229 266.227L363.955 265.527H362.504L363.23 266.227H363.229Z" fill="#1C273D"/>
<path d="M364.363 264V264.501H362.097V264H364.363Z" fill="#1C273D"/>
<path d="M555.484 316C551.414 316 548 319.283 548 323.485C548 327.557 551.282 330.971 555.484 330.971C559.685 330.971 562.967 327.688 562.967 323.485C562.967 319.283 559.685 316 555.484 316Z" fill="#406E9B" stroke="#1C273D" stroke-miterlimit="10"/>
<path d="M552 327.658V326.138H552.743C553.046 324.095 553.348 322.06 553.65 320.021H556.808C557.109 322.055 557.412 324.092 557.714 326.135H558.46V327.658H552ZM556.723 326.132C556.699 326.111 556.689 326.101 556.678 326.093C556.212 325.743 555.745 325.395 555.28 325.043C555.236 325.01 555.211 325.018 555.172 325.047C554.711 325.395 554.248 325.74 553.787 326.086C553.773 326.097 553.761 326.11 553.737 326.132H556.723ZM555.652 324.689C556.153 325.065 556.645 325.433 557.155 325.815L556.853 323.788C556.448 324.092 556.053 324.386 555.652 324.689ZM554.051 323.07H556.408L555.229 321.934L554.05 323.07H554.051ZM554.806 324.689L553.604 323.788L553.303 325.817C553.814 325.433 554.305 325.064 554.805 324.689H554.806ZM554.048 320.794L553.776 322.628L554.863 321.58L554.048 320.794ZM556.409 320.794L555.594 321.581L556.66 322.61L556.676 322.602L556.408 320.794H556.409ZM554.182 323.585C554.53 323.846 554.861 324.096 555.194 324.341C555.212 324.354 555.262 324.343 555.286 324.327C555.598 324.096 555.908 323.863 556.219 323.63C556.233 323.619 556.245 323.606 556.269 323.585H554.182ZM555.229 321.227L555.955 320.527H554.504L555.23 321.227H555.229Z" fill="#1C273D"/>
<path d="M556.363 319V319.501H554.097V319H556.363Z" fill="#1C273D"/>
<path d="M583.484 336C579.414 336 576 339.283 576 343.485C576 347.557 579.282 350.971 583.484 350.971C587.685 350.971 590.967 347.688 590.967 343.485C590.967 339.283 587.685 336 583.484 336Z" fill="#406E9B" stroke="#1C273D" stroke-miterlimit="10"/>
<path d="M580 347.658V346.138H580.743C581.046 344.095 581.348 342.06 581.65 340.021H584.808C585.109 342.055 585.412 344.092 585.714 346.135H586.46V347.658H580ZM584.723 346.132C584.699 346.111 584.689 346.101 584.678 346.093C584.212 345.743 583.745 345.395 583.28 345.043C583.236 345.01 583.211 345.018 583.172 345.047C582.711 345.395 582.248 345.74 581.787 346.086C581.773 346.097 581.761 346.11 581.737 346.132H584.723ZM583.652 344.689C584.153 345.065 584.645 345.433 585.155 345.815L584.853 343.788C584.448 344.092 584.053 344.386 583.652 344.689ZM582.051 343.07H584.408L583.229 341.934L582.05 343.07H582.051ZM582.806 344.689L581.604 343.788L581.303 345.817C581.814 345.433 582.305 345.064 582.805 344.689H582.806ZM582.048 340.794L581.776 342.628L582.863 341.58L582.048 340.794ZM584.409 340.794L583.594 341.581L584.66 342.61L584.676 342.602L584.408 340.794H584.409ZM582.182 343.585C582.53 343.846 582.861 344.096 583.194 344.341C583.212 344.354 583.262 344.343 583.286 344.327C583.598 344.096 583.908 343.863 584.219 343.63C584.233 343.619 584.245 343.606 584.269 343.585H582.182ZM583.229 341.227L583.955 340.527H582.504L583.23 341.227H583.229Z" fill="#1C273D"/>
<path d="M584.363 339V339.501H582.097V339H584.363Z" fill="#1C273D"/>
<path d="M845.484 62C841.414 62 838 65.2831 838 69.4855C838 73.5565 841.282 76.9709 845.484 76.9709C849.685 76.9709 852.967 73.6878 852.967 69.4855C852.967 65.2831 849.685 62 845.484 62Z" fill="#406E9B" stroke="#1C273D" stroke-miterlimit="10"/>
<path d="M842 73.6581V72.1375H842.743C843.046 70.0948 843.348 68.0604 843.65 66.0205H846.808C847.109 68.0549 847.412 70.092 847.714 72.1347H848.46V73.6581H842ZM846.723 72.132C846.699 72.1111 846.689 72.1014 846.678 72.0931C846.212 71.7431 845.745 71.3946 845.28 71.0433C845.236 71.0099 845.211 71.0183 845.172 71.0474C844.711 71.3946 844.248 71.7404 843.787 72.0861C843.773 72.0972 843.761 72.1097 843.737 72.132H846.723ZM845.652 70.6891C846.153 71.0655 846.645 71.4335 847.155 71.8153L846.853 69.7879C846.448 70.092 846.053 70.3864 845.652 70.6891ZM844.051 69.07H846.408L845.229 67.9341L844.05 69.07H844.051ZM844.806 70.6891L843.604 69.7879L843.303 71.8167C843.814 71.4335 844.305 71.0641 844.805 70.6891H844.806ZM844.048 66.794L843.776 68.6284L844.863 67.58L844.048 66.794ZM846.409 66.794L845.594 67.5814L846.66 68.6103L846.676 68.602L846.408 66.794H846.409ZM844.182 69.5852C844.53 69.8462 844.861 70.0962 845.194 70.3406C845.212 70.3545 845.262 70.3434 845.286 70.3267C845.598 70.0962 845.908 69.8629 846.219 69.6296C846.233 69.6185 846.245 69.606 846.269 69.5852H844.182ZM845.229 67.2272L845.955 66.5274H844.504L845.23 67.2272H845.229Z" fill="#1C273D"/>
<path d="M846.363 65V65.5013H844.097V65H846.363Z" fill="#1C273D"/>
<path d="M899.484 1C895.414 1 892 4.28311 892 8.48548C892 12.5565 895.282 15.9709 899.484 15.9709C903.685 15.9709 906.967 12.6878 906.967 8.48548C906.967 4.28311 903.685 1 899.484 1Z" fill="#406E9B" stroke="#1C273D" stroke-miterlimit="10"/>
<path d="M896 12.6581V11.1375H896.743C897.046 9.09481 897.348 7.06043 897.65 5.02051H900.808C901.109 7.05488 901.412 9.09203 901.714 11.1347H902.46V12.6581H896ZM900.723 11.132C900.699 11.1111 900.689 11.1014 900.678 11.0931C900.212 10.7431 899.745 10.3946 899.28 10.0433C899.236 10.0099 899.211 10.0183 899.172 10.0474C898.711 10.3946 898.248 10.7404 897.787 11.0861C897.773 11.0972 897.761 11.1097 897.737 11.132H900.723ZM899.652 9.68915C900.153 10.0655 900.645 10.4335 901.155 10.8153L900.853 8.78792C900.448 9.09203 900.053 9.38642 899.652 9.68915ZM898.051 8.06998H900.408L899.229 6.93407L898.05 8.06998H898.051ZM898.806 9.68915L897.604 8.78792L897.303 10.8167C897.814 10.4335 898.305 10.0641 898.805 9.68915H898.806ZM898.048 5.79399L897.776 7.62839L898.863 6.57996L898.048 5.79399ZM900.409 5.79399L899.594 6.58135L900.66 7.61034L900.676 7.60201L900.408 5.79399H900.409ZM898.182 8.58517C898.53 8.84624 898.861 9.0962 899.194 9.3406C899.212 9.35448 899.262 9.34338 899.286 9.32671C899.598 9.0962 899.908 8.8629 900.219 8.62961C900.233 8.6185 900.245 8.606 900.269 8.58517H898.182ZM899.229 6.22724L899.955 5.52737H898.504L899.23 6.22724H899.229Z" fill="#1C273D"/>
<path d="M900.363 4V4.5013H898.097V4H900.363Z" fill="#1C273D"/>
</svg>
