<svg width="15" height="17" viewBox="0 0 15 17" fill="none" xmlns="http://www.w3.org/2000/svg">
<path fill-rule="evenodd" clip-rule="evenodd" d="M0 7.36669C0 3.29861 3.35904 0 7.5 0C11.641 0 15 3.29861 15 7.36669C15 10.3991 13.4558 12.8015 11.802 14.4258C10.9733 15.2398 10.1051 15.871 9.36144 16.3017C8.98981 16.517 8.6425 16.6861 8.34057 16.8032C8.0555 16.9138 7.75628 17 7.5 17C7.24372 17 6.9445 16.9138 6.65943 16.8032C6.3575 16.6861 6.01018 16.517 5.63856 16.3017C4.89493 15.871 4.02674 15.2398 3.19796 14.4258C1.54418 12.8015 0 10.3991 0 7.36669ZM7.5 4.53312C5.90789 4.53312 4.61538 5.80204 4.61538 7.36669C4.61538 8.93132 5.90787 10.2003 7.5 10.2003C9.09212 10.2003 10.3846 8.93132 10.3846 7.36669C10.3846 5.80204 9.09211 4.53312 7.5 4.53312Z" fill="#1C273D"/>
</svg>
