<svg width="28" height="28" viewBox="0 0 28 28" fill="none" xmlns="http://www.w3.org/2000/svg">
<path fill-rule="evenodd" clip-rule="evenodd" d="M21.3662 19.0127C20.5181 20.7714 20.8118 23.1558 19.2688 24.3549C17.7083 25.5677 15.452 25.4657 13.498 25.1275C11.6805 24.813 10.3675 23.3938 8.73581 22.5322C6.80218 21.5112 3.978 21.5558 3.01943 19.5945C2.07013 17.6523 3.75553 15.4756 4.26265 13.38C4.73883 11.4124 4.33564 8.93977 5.90713 7.66186C7.49126 6.37368 9.93493 7.72155 11.9035 7.16663C13.9854 6.5798 15.4552 4.09086 17.6043 4.36464C19.7401 4.63673 21.2011 6.7123 22.3942 8.50309C23.5222 10.1963 24.3596 12.1889 24.1621 14.2079C23.9779 16.0914 22.1878 17.3092 21.3662 19.0127Z" fill="#C4C4C4"/>
<path fill-rule="evenodd" clip-rule="evenodd" d="M18.6737 17.2214C18.1226 18.3643 18.3134 19.9138 17.3107 20.693C16.2966 21.4811 14.8304 21.4149 13.5606 21.1951C12.3795 20.9907 11.5263 20.0685 10.4659 19.5086C9.20936 18.8451 7.37408 18.874 6.75115 17.5995C6.13426 16.3373 7.2295 14.9228 7.55905 13.5611C7.86849 12.2824 7.60648 10.6756 8.62771 9.84513C9.65715 9.00801 11.2452 9.88391 12.5245 9.52331C13.8773 9.14196 14.8325 7.52453 16.2291 7.70244C17.617 7.87926 18.5664 9.22806 19.3417 10.3918C20.0748 11.4921 20.619 12.787 20.4906 14.0991C20.3709 15.323 19.2076 16.1144 18.6737 17.2214Z" fill="#E1E1E1"/>
<path fill-rule="evenodd" clip-rule="evenodd" d="M15.752 15.276C15.5235 15.75 15.6026 16.3926 15.1868 16.7157C14.7662 17.0426 14.1582 17.0151 13.6316 16.924C13.1418 16.8392 12.7879 16.4567 12.3482 16.2245C11.8271 15.9494 11.0659 15.9614 10.8076 15.4328C10.5518 14.9094 11.006 14.3228 11.1427 13.758C11.271 13.2277 11.1623 12.5614 11.5858 12.217C12.0128 11.8698 12.6713 12.2331 13.2019 12.0835C13.7629 11.9254 14.159 11.2546 14.7382 11.3284C15.3138 11.4017 15.7075 11.9611 16.0291 12.4437C16.3331 12.9 16.5587 13.437 16.5055 13.9811C16.4559 14.4887 15.9734 14.8169 15.752 15.276Z" fill="#1C273D"/>
</svg>
