<svg width="23" height="22" viewBox="0 0 23 22" fill="none" xmlns="http://www.w3.org/2000/svg">
<path fill-rule="evenodd" clip-rule="evenodd" d="M19.3662 15.0127C18.5181 16.7714 18.8118 19.1558 17.2688 20.3549C15.7083 21.5677 13.452 21.4657 11.498 21.1275C9.68053 20.813 8.3675 19.3938 6.73581 18.5322C4.80218 17.5112 1.978 17.5558 1.01943 15.5945C0.0701337 13.6523 1.75553 11.4756 2.26265 9.38004C2.73883 7.41236 2.33564 4.93977 3.90713 3.66186C5.49126 2.37368 7.93493 3.72155 9.90354 3.16663C11.9854 2.5798 13.4552 0.0908584 15.6043 0.364639C17.7401 0.636729 19.2011 2.7123 20.3942 4.50309C21.5222 6.1963 22.3596 8.18889 22.1621 10.2079C21.9779 12.0914 20.1878 13.3092 19.3662 15.0127Z" fill="#C4C4C4"/>
</svg>
