<svg width="37" height="38" viewBox="0 0 37 38" fill="none" xmlns="http://www.w3.org/2000/svg">
<path d="M37 37.2828V0.716797L25.7196 0.716797L33.6292 18.9998H29.6352L27.9091 15.0058H17.911L16.1848 18.9998H12.1908L20.1005 0.716797L0 0.716797L0 37.2828H11.2772L3.37076 18.9998H7.36476L9.09093 22.9938H19.0857L20.8152 18.9998H24.8059L16.8995 37.2828H37Z" fill="url(#paint0_linear_402_381)"/>
<path d="M23.4549 4.70801H22.365L19.6404 11.0155H26.1796L23.4549 4.70801Z" fill="url(#paint1_linear_402_381)"/>
<path d="M13.5451 33.2916H14.6317L17.3596 26.9873H10.8171L13.5451 33.2916Z" fill="url(#paint2_linear_402_381)"/>
<defs>
<linearGradient id="paint0_linear_402_381" x1="-37.5776" y1="61.5046" x2="64.4098" y2="-15.7976" gradientUnits="userSpaceOnUse">
<stop stop-color="#CC9748"/>
<stop offset="1" stop-color="#F9DF94"/>
</linearGradient>
<linearGradient id="paint1_linear_402_381" x1="-798.675" y1="1185.98" x2="1190.84" y2="-377.382" gradientUnits="userSpaceOnUse">
<stop stop-color="#CC9748"/>
<stop offset="1" stop-color="#F9DF94"/>
</linearGradient>
<linearGradient id="paint2_linear_402_381" x1="-677.385" y1="1373.58" x2="1311.65" y2="-190.943" gradientUnits="userSpaceOnUse">
<stop stop-color="#CC9748"/>
<stop offset="1" stop-color="#F9DF94"/>
</linearGradient>
</defs>
</svg>
