<svg width="140" height="22" viewBox="0 0 140 22" fill="none" xmlns="http://www.w3.org/2000/svg">
<path fill-rule="evenodd" clip-rule="evenodd" d="M132.965 0.137695H131.11V0.196151C131.409 0.897615 131.529 1.8329 131.529 3.06047V10.2505H132.606V3.06047C132.606 1.8329 132.665 0.83916 133.024 0.196151V0.137695H132.965Z" fill="white"/>
<path fill-rule="evenodd" clip-rule="evenodd" d="M132.605 10.3089H132.066L136.732 3.06047C137.569 1.77445 137.749 0.488428 137.27 0.196151V0.137695H139.543V0.196151C138.765 0.780705 137.988 1.89136 137.27 3.06047L132.605 10.3089Z" fill="white"/>
<path fill-rule="evenodd" clip-rule="evenodd" d="M63.5801 5.63236H64.1782C66.0922 5.63236 67.0492 4.69708 66.9894 3.11878C66.9296 1.48203 65.9128 0.429834 63.8193 0.429834V0.0791016H63.939C66.8698 0.137557 68.1857 1.01439 68.1857 3.00187C68.1857 4.52171 67.2287 5.57391 65.4343 5.92464L66.8698 8.2044C67.2885 8.84741 68.1857 10.075 68.9632 10.2503V10.3088H66.9894L64.2978 6.04155H64.1782H63.5801V5.63236Z" fill="white"/>
<path fill-rule="evenodd" clip-rule="evenodd" d="M77.2779 0.312988L77.3377 0.839087L73.2106 7.44455C72.4331 8.73057 72.1938 10.0166 72.6723 10.3089V10.3673H70.3994V10.3089C71.1172 9.72431 71.9545 8.61365 72.6723 7.44455L77.2779 0.312988Z" fill="white"/>
<path d="M77.6373 6.91895H73.1514V7.32813H77.6373V6.91895Z" fill="white"/>
<path fill-rule="evenodd" clip-rule="evenodd" d="M76.4404 10.3088H78.2946V10.2503C77.9956 9.60733 77.8759 8.61359 77.8759 7.38603V3.00187C77.8759 1.77431 77.9357 0.780566 78.2946 0.137557V0.0791016H76.4404V0.137557C76.7395 0.780566 76.8591 1.77431 76.8591 3.00187V7.32757C76.8591 8.55513 76.7993 9.54887 76.4404 10.1919V10.3088Z" fill="white"/>
<path fill-rule="evenodd" clip-rule="evenodd" d="M81.4055 7.6784C82.4223 11.1273 86.1905 10.4258 85.2933 7.61994C84.8747 6.21701 83.8578 5.51555 82.841 4.58026C79.97 1.7744 83.9176 -1.26528 85.8915 0.546839L85.9513 0.605295L85.7718 1.89131H85.712C85.4728 1.30676 85.1737 0.956027 84.8746 0.780661C83.1401 -0.271536 81.4653 1.71595 83.1999 3.3527C84.6354 4.69717 86.4896 6.1001 86.4896 7.6784C86.5494 10.3673 82.9008 11.1857 80.927 9.31515L80.8672 9.25669L81.2261 7.61994H81.4055V7.6784Z" fill="white"/>
<path d="M96.7777 4.93066H90.916V5.2814H96.7777V4.93066Z" fill="white"/>
<path fill-rule="evenodd" clip-rule="evenodd" d="M97.4948 0.137557C97.1958 0.780566 97.0761 1.77431 97.0761 3.00187V7.32757C97.0761 8.61359 97.1359 9.54887 97.4948 10.1919V10.2503H95.6406V10.1919C95.9397 9.54887 96.0593 8.55513 96.0593 7.32757V3.00187C96.0593 1.77431 95.9995 0.780566 95.6406 0.137557V0.0791016H97.4948V0.137557Z" fill="white"/>
<path fill-rule="evenodd" clip-rule="evenodd" d="M91.9919 0.137557C91.6928 0.780566 91.5732 1.77431 91.5732 3.00187V7.32757C91.5732 8.61359 91.633 9.54887 91.9919 10.1919V10.2503H90.1377V10.1919C90.4368 9.54887 90.5564 8.55513 90.5564 7.32757V3.00187C90.5564 1.77431 90.4966 0.780566 90.1377 0.137557V0.0791016H91.9919V0.137557Z" fill="white"/>
<path fill-rule="evenodd" clip-rule="evenodd" d="M101.502 10.3088H103.356V10.2503C103.057 9.60733 102.937 8.61359 102.937 7.38603V3.00187C102.937 1.77431 102.997 0.780566 103.356 0.137557V0.0791016H101.502V0.137557C101.861 0.780566 101.921 1.77431 101.921 3.00187V7.32757C101.921 8.55513 101.861 9.54887 101.502 10.1919V10.3088Z" fill="white"/>
<path fill-rule="evenodd" clip-rule="evenodd" d="M110.295 0.0791016C112.269 0.0791016 115.439 1.6574 115.439 5.22318C115.439 8.78895 112.269 10.3088 110.295 10.3088H109.218H107.364V10.2503C107.663 9.60733 107.783 8.67204 107.783 7.38603V3.00187V3.06033C107.783 1.83276 107.723 0.780566 107.364 0.137557V0.0791016H110.295ZM108.8 9.89961H109.817C111.611 9.89961 114.422 8.43822 114.422 5.16472C114.422 1.89122 111.611 0.429834 109.817 0.429834H108.8V9.89961Z" fill="white"/>
<path fill-rule="evenodd" clip-rule="evenodd" d="M128.478 5.22318C128.478 2.35886 126.146 0.0791016 123.215 0.0791016C120.284 0.0791016 117.951 2.41732 117.951 5.22318C117.951 8.08749 120.344 10.3673 123.215 10.3673C126.146 10.3673 128.478 8.08749 128.478 5.22318ZM127.282 5.22318C127.282 7.85367 125.428 10.0165 123.155 10.0165C120.882 10.0165 119.028 7.85367 119.028 5.22318C119.028 2.59268 120.882 0.429834 123.155 0.429834C125.488 0.429834 127.282 2.59268 127.282 5.22318Z" fill="white"/>
<path fill-rule="evenodd" clip-rule="evenodd" d="M62.8037 4.9309V3.00187V2.94342V2.70959C62.8037 1.59894 62.6841 0.722111 62.385 0.137557V0.0791016H63.7607L64.1794 0.137557C63.8803 0.780566 63.7607 1.77431 63.7607 3.00187V7.32757C63.7607 8.61359 63.8205 9.54887 64.1794 10.1919V10.2503H62.3252V10.1919C62.6243 9.54887 62.7439 8.61359 62.7439 7.32757V6.27537V5.28163V4.9309H62.8037Z" fill="white"/>
<path fill-rule="evenodd" clip-rule="evenodd" d="M0.41869 7.67863C1.43551 11.1275 5.20372 10.426 4.30653 7.62017C3.88784 6.21724 2.87102 5.51578 1.8542 4.58049C-0.957006 1.77463 2.99064 -1.26505 4.96447 0.605524L5.02428 0.66398L4.84484 1.95H4.78503C4.54578 1.36544 4.30653 1.01471 3.94765 0.839346C2.21308 -0.212851 0.538316 1.77463 2.3327 3.41138C3.76821 4.75586 5.62241 6.15879 5.62241 7.73708C5.68222 10.426 2.03364 11.2444 0.0598129 9.37383L0 9.25692L0.358877 7.67863H0.41869Z" fill="white"/>
<path fill-rule="evenodd" clip-rule="evenodd" d="M10.6467 4.9309H15.0728V3.00187C15.0728 1.77431 15.013 0.780566 14.714 0.137557V0.0791016H16.5682V0.137557C16.1495 0.839022 16.0897 1.77431 16.0897 3.00187V7.32757C16.0897 8.61359 16.1495 9.54887 16.5083 10.1919V10.2503H14.6542V10.1919C14.9532 9.54887 15.013 8.61359 15.013 7.32757V5.28163H10.5869V7.32757C10.5869 8.61359 10.6467 9.54887 11.0056 10.1919V10.2503H9.15137V10.1919C9.45043 9.54887 9.57006 8.61359 9.57006 7.32757V3.00187C9.57006 1.77431 9.51024 0.780566 9.15137 0.137557V0.0791016H11.0056V0.137557C10.7065 0.780566 10.5869 1.77431 10.5869 3.00187V4.9309H10.6467Z" fill="white"/>
<path fill-rule="evenodd" clip-rule="evenodd" d="M24.9417 1.71585L21.7118 6.91838H25.0015V3.00187C25.0015 2.53423 25.0015 2.12504 24.9417 1.71585ZM25.0015 7.32757H21.4726L21.4128 7.38603C20.5754 8.67204 20.3959 9.95806 20.8745 10.2503V10.3088H18.6016V10.2503C19.3791 9.66579 20.1567 8.55513 20.8745 7.38603C22.1903 5.34009 23.5062 3.23569 24.8819 1.1313C24.8221 0.780566 24.7623 0.371379 24.5828 0.137557V0.0791016H26.437V0.137557C26.138 0.839022 26.0184 1.77431 26.0184 3.00187V7.32757C26.0184 8.55513 26.0782 9.54887 26.437 10.1919V10.2503H24.5828V10.1919C24.9417 9.54887 25.0015 8.61359 25.0015 7.32757Z" fill="white"/>
<path fill-rule="evenodd" clip-rule="evenodd" d="M44.859 1.71585L41.6291 6.91838H44.859V3.00187C44.859 2.53423 44.859 2.12504 44.859 1.71585ZM44.859 7.32757H41.33L41.2702 7.38603C40.4328 8.67204 40.2534 9.95806 40.7319 10.2503V10.3088H38.459V10.2503C39.1767 9.66579 40.0141 8.55513 40.7319 7.38603L44.7393 1.1313C44.6795 0.780566 44.6197 0.371379 44.4403 0.137557V0.0791016H46.2945V0.137557C45.9356 0.839022 45.8758 1.77431 45.8758 3.00187V7.32757C45.8758 8.55513 45.9356 9.54887 46.2945 10.1919V10.2503H44.4403V10.1919C44.7991 9.54887 44.859 8.61359 44.859 7.32757Z" fill="white"/>
<path fill-rule="evenodd" clip-rule="evenodd" d="M52.0371 0.429834C51.7978 1.07284 51.738 1.94967 51.738 3.00187V4.81399H52.6352C53.9511 4.81399 54.7286 4.75553 55.4464 4.4048H55.5062V5.57391H55.4464C54.7286 5.28163 53.8913 5.22318 52.6352 5.22318H51.7978V7.38603C51.7978 8.67204 51.9174 9.60733 52.2165 10.2503V10.3088H50.3623V10.2503C50.6614 9.60733 50.781 8.61359 50.781 7.38603V3.00187C50.781 1.77431 50.7212 0.780566 50.3623 0.137557V0.0791016H56.4632V1.30666H56.4034C55.9249 0.488289 54.7286 0.488289 53.4726 0.488289H52.0371V0.429834Z" fill="white"/>
<path fill-rule="evenodd" clip-rule="evenodd" d="M31.5811 5.63236H32.1792C34.0932 5.63236 35.0502 4.69708 34.9904 3.11878C34.9904 1.48203 33.9138 0.429834 31.8203 0.429834V0.0791016H31.9997C34.9306 0.137557 36.2465 1.01439 36.2465 3.00187C36.2465 4.52171 35.2895 5.57391 33.4951 5.92464L34.9306 8.2044C35.3493 8.84741 36.2465 10.075 37.024 10.2503V10.3088H34.9904L32.2988 6.04155H32.1792H31.5811V5.63236Z" fill="white"/>
<path fill-rule="evenodd" clip-rule="evenodd" d="M30.8638 4.9309V3.00187V2.94342V2.70959C30.8638 1.59894 30.7441 0.722111 30.5049 0.137557V0.0791016H31.9404L32.2993 0.137557C31.9404 0.780566 31.8806 1.77431 31.8806 3.00187V7.32757C31.8806 8.61359 31.9404 9.54887 32.2993 10.1919V10.2503H30.5049V10.1919C30.8039 9.54887 30.8638 8.61359 30.8638 7.32757V6.27537V5.28163V4.9309Z" fill="white"/>
<path fill-rule="evenodd" clip-rule="evenodd" d="M4.30653 15.9788V15.4527H0V21.8828H0.598128V18.6678H3.88784V18.1417H0.598128V15.9788H4.30653ZM6.16072 18.6093C6.16072 20.0122 6.75885 21.9997 9.03174 21.9997C11.0654 21.9997 11.8429 20.1876 11.8429 18.5508C11.8429 16.5049 10.7663 15.2773 9.03174 15.2773C6.63923 15.2773 6.16072 17.4402 6.16072 18.6093ZM6.81866 18.6678C6.81866 17.3817 7.35698 15.8034 9.03174 15.8034C10.7663 15.8034 11.185 17.5571 11.185 18.5508C11.185 19.7784 10.7065 21.4736 8.97193 21.4736C7.05792 21.4736 6.81866 19.4861 6.81866 18.6678ZM19.499 21.8828V15.4527H18.9009C18.9009 15.5696 18.9607 20.9475 18.9607 20.9475L15.0728 15.4527H14.4747V21.8828H15.0728V16.3295L18.9607 21.8828H19.499ZM22.6093 15.4527V21.8828H24.3438C25.241 21.8828 25.6597 21.8828 26.0784 21.7074C26.4971 21.5321 26.856 21.2398 26.9158 21.1229C27.7532 20.2461 27.7532 19.0185 27.7532 18.6678C27.7532 17.3817 27.2148 16.5634 26.856 16.1542C26.198 15.4527 25.4803 15.4527 24.5831 15.4527H22.6093ZM23.2672 15.9788H24.4036C25.1812 15.9788 25.4803 15.9788 25.8392 16.0957C26.9756 16.5049 27.155 18.0247 27.155 18.6093C27.155 19.4861 26.856 20.7137 25.9588 21.0644C25.5999 21.2398 25.0616 21.2398 24.2242 21.2398H23.2074V15.9788H23.2672ZM31.0429 15.4527H30.4447V21.8828H31.0429V15.4527ZM31.0429 21.8828V15.4527V21.8828Z" fill="white"/>
</svg>
