<svg width="16" height="14" viewBox="0 0 16 14" fill="none" xmlns="http://www.w3.org/2000/svg">
<path d="M1 3.99805L8 1L15 3.99805M1 3.99805L8 6.99609M1 3.99805V4L8 6.99609M15 3.99805L8 6.99609M15 3.99805L8 7" stroke="white" stroke-linejoin="round"/>
<path d="M1 6.99805L8 9.99609M1 6.99805V7L8 9.99609M1 6.99805L4.5 5.49902M15 6.99805L8 9.99609M15 6.99805L8 10M15 6.99805L11.5 5.49902M1 10.002L8 13M1 10.002V10.0039L8 13M1 10.002L4.5 8.50293M15 10.002L8 13M15 10.002L8 13.0039M15 10.002L11.5 8.50293" stroke="white" stroke-linejoin="round"/>
</svg>
